<?xml version="1.0" encoding="UTF-8"?>
<svg version="1.1" xmlns="http://www.w3.org/2000/svg" width="1024" height="1024">
<path d="M0 0 C1.66794227 1.00446603 3.33059322 2.01776244 4.98828125 3.0390625 C7.64984524 4.64559212 10.35229233 6.13649522 13.08984375 7.609375 C17.49549583 9.98545702 21.78158281 12.51068481 26.05859375 15.109375 C28.70303584 16.67645179 31.38444288 18.1502824 34.08984375 19.609375 C38.45052111 21.96120099 42.69502452 24.4569275 46.92724609 27.03100586 C49.47478808 28.54117081 52.0511608 29.96249975 54.66015625 31.36328125 C60.67343882 34.62777854 66.56999065 38.07434314 72.46484375 41.546875 C80.75334927 46.40869745 89.06200292 51.17889519 97.58984375 55.609375 C97.58984375 56.269375 97.58984375 56.929375 97.58984375 57.609375 C98.31147705 57.71894531 99.03311035 57.82851563 99.77661133 57.94140625 C102.79438222 58.65794024 104.92878282 59.73576884 107.6015625 61.296875 C108.52388672 61.83054687 109.44621094 62.36421875 110.39648438 62.9140625 C111.34716797 63.47351563 112.29785156 64.03296875 113.27734375 64.609375 C115.17695147 65.7137685 117.07668477 66.81794605 118.9765625 67.921875 C119.81405029 68.41300781 120.65153809 68.90414062 121.5144043 69.41015625 C122.85097797 70.18244773 124.2091589 70.91903258 125.58984375 71.609375 C125.58984375 72.269375 125.58984375 72.929375 125.58984375 73.609375 C126.31171875 73.71507812 127.03359375 73.82078125 127.77734375 73.9296875 C130.84799604 74.6717618 132.92203604 75.80865828 135.58984375 77.484375 C136.82734375 78.25394531 136.82734375 78.25394531 138.08984375 79.0390625 C139.32734375 79.81636719 139.32734375 79.81636719 140.58984375 80.609375 C141.46253906 81.11726563 142.33523438 81.62515625 143.234375 82.1484375 C147.21078468 84.61473472 150.00973814 87.73921658 152.58984375 91.609375 C153.31923529 96.13838761 153.16517038 99.62310078 150.83984375 103.609375 C147.21217423 106.83397013 143.8600032 106.73469141 139.12967777 106.74080276 C138.01359388 106.74464391 136.89751 106.74848505 135.74760538 106.7524426 C133.90837957 106.75114287 133.90837957 106.75114287 132.03199768 106.74981689 C130.72945461 106.75278802 129.42691153 106.75575914 128.08489746 106.7588203 C124.46648193 106.76688905 120.84808624 106.76867979 117.22966278 106.76941776 C113.32843676 106.77126848 109.42722104 106.77881579 105.52600098 106.78555298 C96.99518387 106.79913479 88.46437147 106.80516046 79.93354535 106.80956364 C74.60868496 106.81232568 69.28382638 106.8165629 63.95896721 106.82106781 C49.22033712 106.83325907 34.48170849 106.84355945 19.74307346 106.8469429 C18.32816892 106.84727225 18.32816892 106.84727225 16.88468045 106.84760825 C15.93914173 106.84782653 14.99360302 106.84804481 14.01941162 106.8482697 C12.10335449 106.84871317 10.18729736 106.84915973 8.27124023 106.84960938 C6.8455914 106.84994152 6.8455914 106.84994152 5.39114159 106.85028037 C-10.01821392 106.8542306 -25.4275222 106.8716921 -40.83685946 106.8949689 C-56.65153567 106.91866556 -72.46618816 106.93114394 -88.28088242 106.93231082 C-97.16270365 106.9332284 -106.04446332 106.93900179 -114.92626762 106.95713043 C-122.48715625 106.97250852 -130.04796427 106.97766538 -137.60886555 106.96939233 C-141.46770629 106.96547799 -145.32638458 106.96645348 -149.18520546 106.98044968 C-153.36536397 106.99547308 -157.54515431 106.98734562 -161.72532654 106.97686768 C-162.94924636 106.98492408 -164.17316618 106.99298048 -165.43417448 107.00128102 C-167.11221193 106.99139626 -167.11221193 106.99139626 -168.82414913 106.9813118 C-169.78912852 106.98190889 -170.75410791 106.98250597 -171.7483291 106.98312116 C-175.72976717 106.42408892 -178.36638861 104.61715065 -181.22265625 101.859375 C-182.9887416 98.51310802 -182.91729817 96.34954666 -182.41015625 92.609375 C-178.61567281 85.14532939 -172.46958239 81.5551879 -165.16796875 78.03515625 C-161.29094088 76.03074382 -157.68791792 73.6644209 -154.05078125 71.2578125 C-151.24632111 69.50709922 -148.37391397 68.0725904 -145.41015625 66.609375 C-143.10794999 65.33274554 -140.81717036 64.04581969 -138.53515625 62.734375 C-137.91729248 62.38068848 -137.29942871 62.02700195 -136.6628418 61.66259766 C-133.47602997 59.82947951 -130.3223939 57.9610193 -127.22265625 55.984375 C-123.32362999 53.49864184 -119.26881348 51.33628268 -115.19921875 49.14453125 C-112.56119218 47.69250822 -109.98295612 46.17347397 -107.41015625 44.609375 C-104.09955164 42.59918002 -100.75989835 40.69158946 -97.34765625 38.859375 C-87.20941168 33.38156817 -77.32117197 27.44068477 -67.53515625 21.359375 C-62.90933616 18.49468296 -58.22697231 15.81458714 -53.43359375 13.2421875 C-49.67616305 11.21298074 -45.94697484 9.13610601 -42.22265625 7.046875 C-41.52873779 6.65814209 -40.83481934 6.26940918 -40.11987305 5.86889648 C-36.65097299 3.91397081 -33.24575519 1.91205399 -29.91015625 -0.265625 C-19.16561927 -7.09017706 -10.79815623 -6.23037864 0 0 Z " fill="#FEFEFE" transform="translate(434.41015625,294.390625)"/>
<path d="M0 0 C0.68376709 -0.02199463 1.36753418 -0.04398926 2.07202148 -0.06665039 C5.48066279 -0.05243515 7.3678803 0.39392784 10.27734375 2.21484375 C14.39652915 6.45320992 14.69513776 9.36480406 14.625 15.25 C14.61855469 16.43207031 14.61210938 17.61414063 14.60546875 18.83203125 C14.4375 22.4375 14.4375 22.4375 13.96972656 25.59741211 C13.37459549 29.89136471 13.04514403 34.1613574 12.75390625 38.484375 C12.62976086 40.23438945 12.50540524 41.984389 12.38085938 43.734375 C12.18978573 46.45686859 12.00054766 49.17945505 11.81518555 51.90234375 C9.93851364 79.30423929 9.93851364 79.30423929 5.4375 84.4375 C1.71944234 86.4472609 -1.37176332 86.86512619 -5.5625 86.4375 C-10.31941243 84.66531694 -12.40288462 83.00768444 -14.5625 78.4375 C-14.90307617 75.02416992 -14.90307617 75.02416992 -14.85546875 71.16796875 C-14.85122391 70.48696609 -14.84697906 69.80596344 -14.84260559 69.10432434 C-14.8259061 66.94413541 -14.78827312 64.78490358 -14.75 62.625 C-14.73494174 61.15431042 -14.72125534 59.68360611 -14.70898438 58.21289062 C-14.67603214 54.62078643 -14.62431173 51.02923674 -14.5625 47.4375 C-20.0226962 52.82859975 -20.0226962 52.82859975 -25.1875 58.5 C-25.76113281 59.16128906 -26.33476563 59.82257813 -26.92578125 60.50390625 C-28.43965779 62.29237614 -29.90872885 64.11003595 -31.375 65.9375 C-32.4578125 67.175 -32.4578125 67.175 -33.5625 68.4375 C-34.2225 68.4375 -34.8825 68.4375 -35.5625 68.4375 C-36.2225 69.7575 -36.8825 71.0775 -37.5625 72.4375 C-38.2225 72.4375 -38.8825 72.4375 -39.5625 72.4375 C-40.2225 73.7575 -40.8825 75.0775 -41.5625 76.4375 C-42.2225 76.4375 -42.8825 76.4375 -43.5625 76.4375 C-44.2225 77.7575 -44.8825 79.0775 -45.5625 80.4375 C-46.2225 80.4375 -46.8825 80.4375 -47.5625 80.4375 C-48.2225 81.7575 -48.8825 83.0775 -49.5625 84.4375 C-50.2225 84.4375 -50.8825 84.4375 -51.5625 84.4375 C-52.2225 85.7575 -52.8825 87.0775 -53.5625 88.4375 C-54.2225 88.4375 -54.8825 88.4375 -55.5625 88.4375 C-56.2225 89.7575 -56.8825 91.0775 -57.5625 92.4375 C-58.2225 92.4375 -58.8825 92.4375 -59.5625 92.4375 C-60.2225 93.7575 -60.8825 95.0775 -61.5625 96.4375 C-62.2225 96.4375 -62.8825 96.4375 -63.5625 96.4375 C-64.2225 97.7575 -64.8825 99.0775 -65.5625 100.4375 C-66.2225 100.4375 -66.8825 100.4375 -67.5625 100.4375 C-68.2225 101.7575 -68.8825 103.0775 -69.5625 104.4375 C-70.2225 104.4375 -70.8825 104.4375 -71.5625 104.4375 C-72.2225 105.7575 -72.8825 107.0775 -73.5625 108.4375 C-74.2225 108.4375 -74.8825 108.4375 -75.5625 108.4375 C-76.2225 109.7575 -76.8825 111.0775 -77.5625 112.4375 C-78.2225 112.4375 -78.8825 112.4375 -79.5625 112.4375 C-80.2225 113.7575 -80.8825 115.0775 -81.5625 116.4375 C-82.2225 116.4375 -82.8825 116.4375 -83.5625 116.4375 C-84.2225 117.7575 -84.8825 119.0775 -85.5625 120.4375 C-86.2225 120.4375 -86.8825 120.4375 -87.5625 120.4375 C-88.2225 121.7575 -88.8825 123.0775 -89.5625 124.4375 C-90.2225 124.4375 -90.8825 124.4375 -91.5625 124.4375 C-92.2225 125.7575 -92.8825 127.0775 -93.5625 128.4375 C-94.2225 128.4375 -94.8825 128.4375 -95.5625 128.4375 C-96.2225 129.7575 -96.8825 131.0775 -97.5625 132.4375 C-98.2225 132.4375 -98.8825 132.4375 -99.5625 132.4375 C-100.2225 133.7575 -100.8825 135.0775 -101.5625 136.4375 C-102.2225 136.4375 -102.8825 136.4375 -103.5625 136.4375 C-104.2225 137.7575 -104.8825 139.0775 -105.5625 140.4375 C-106.2225 140.4375 -106.8825 140.4375 -107.5625 140.4375 C-108.2225 141.7575 -108.8825 143.0775 -109.5625 144.4375 C-110.2225 144.4375 -110.8825 144.4375 -111.5625 144.4375 C-112.2225 145.7575 -112.8825 147.0775 -113.5625 148.4375 C-114.2225 148.4375 -114.8825 148.4375 -115.5625 148.4375 C-116.2225 149.7575 -116.8825 151.0775 -117.5625 152.4375 C-118.2225 152.4375 -118.8825 152.4375 -119.5625 152.4375 C-120.2225 153.7575 -120.8825 155.0775 -121.5625 156.4375 C-122.2225 156.4375 -122.8825 156.4375 -123.5625 156.4375 C-124.2225 157.7575 -124.8825 159.0775 -125.5625 160.4375 C-126.2225 160.4375 -126.8825 160.4375 -127.5625 160.4375 C-128.2225 161.7575 -128.8825 163.0775 -129.5625 164.4375 C-130.2225 164.4375 -130.8825 164.4375 -131.5625 164.4375 C-132.2225 165.7575 -132.8825 167.0775 -133.5625 168.4375 C-134.2225 168.4375 -134.8825 168.4375 -135.5625 168.4375 C-136.2225 169.7575 -136.8825 171.0775 -137.5625 172.4375 C-138.2225 172.4375 -138.8825 172.4375 -139.5625 172.4375 C-140.2225 173.7575 -140.8825 175.0775 -141.5625 176.4375 C-142.2225 176.4375 -142.8825 176.4375 -143.5625 176.4375 C-144.2225 177.7575 -144.8825 179.0775 -145.5625 180.4375 C-146.2225 180.4375 -146.8825 180.4375 -147.5625 180.4375 C-148.2225 181.7575 -148.8825 183.0775 -149.5625 184.4375 C-150.2225 184.4375 -150.8825 184.4375 -151.5625 184.4375 C-151.95115234 185.33082031 -151.95115234 185.33082031 -152.34765625 186.2421875 C-153.66040513 188.61442182 -154.92031927 189.84168309 -157 191.5625 C-161.42244708 195.29898358 -165.6865372 199.1882433 -169.94921875 203.10546875 C-177.04491206 209.4375 -177.04491206 209.4375 -179.5625 209.4375 C-179.8925 210.4275 -180.2225 211.4175 -180.5625 212.4375 C-181.5525 212.4375 -182.5425 212.4375 -183.5625 212.4375 C-183.8925 213.4275 -184.2225 214.4175 -184.5625 215.4375 C-187.00390625 217.3046875 -187.00390625 217.3046875 -190.125 219.3125 C-191.2078125 220.01117187 -192.290625 220.70984375 -193.40625 221.4296875 C-194.4478125 222.09226562 -195.489375 222.75484375 -196.5625 223.4375 C-197.3771875 223.97632813 -198.191875 224.51515625 -199.03125 225.0703125 C-204.18785714 228.4375 -204.18785714 228.4375 -207.5625 228.4375 C-207.5625 229.0975 -207.5625 229.7575 -207.5625 230.4375 C-208.25859375 230.82228516 -208.25859375 230.82228516 -208.96875 231.21484375 C-213.44224051 233.69362487 -217.90461983 236.19136356 -222.359375 238.70361328 C-240.35234046 248.84579471 -258.52798914 258.09403643 -277.40673828 266.47265625 C-280.05687145 267.65876341 -282.68401538 268.89178617 -285.3125 270.125 C-290.23876855 272.37261003 -295.2880671 274.26213522 -300.36669922 276.13085938 C-306.25787379 278.30048485 -312.06581919 280.64445315 -317.8671875 283.04296875 C-322.37399714 284.74374152 -326.93801003 286.09745373 -331.5625 287.4375 C-333.38030574 287.97493105 -335.19801174 288.51269956 -337.015625 289.05078125 C-343.19231163 290.86582995 -349.37600396 292.6562042 -355.5625 294.4375 C-356.52397949 294.71561523 -357.48545898 294.99373047 -358.47607422 295.28027344 C-361.23111634 296.07264218 -363.98977025 296.85091807 -366.75 297.625 C-367.91934082 297.96301636 -367.91934082 297.96301636 -369.11230469 298.30786133 C-386.01830804 302.98604928 -402.43624044 305.04945831 -419.94140625 304.93359375 C-421.89721226 304.93374929 -423.85301856 304.93524737 -425.80882263 304.93800354 C-429.85665939 304.93937135 -433.90413471 304.92708619 -437.9519043 304.90405273 C-443.13796664 304.87534645 -448.32344509 304.87851407 -453.50955296 304.89114285 C-457.52525341 304.89808446 -461.54081826 304.89033352 -465.55650139 304.87788582 C-467.47066669 304.87337921 -469.38484655 304.8730276 -471.29901314 304.87695122 C-473.95689254 304.87985668 -476.61395271 304.86340032 -479.27172852 304.84155273 C-480.44899254 304.84830521 -480.44899254 304.84830521 -481.65003967 304.85519409 C-484.90060801 304.81072553 -487.1806238 304.65503945 -490.03445435 303.02932739 C-494.03049029 298.866494 -492.74651122 291.87620332 -492.75 286.5 C-492.76224609 285.51064453 -492.77449219 284.52128906 -492.78710938 283.50195312 C-492.78904297 282.54353516 -492.79097656 281.58511719 -492.79296875 280.59765625 C-492.79707764 279.72761963 -492.80118652 278.85758301 -492.80541992 277.96118164 C-492.52599946 275.05829788 -491.94299589 273.01000676 -490.5625 270.4375 C-487.49646729 268.47046688 -485.0860963 268.19024152 -481.48403931 268.19940186 C-480.45856491 268.19690933 -479.43309052 268.19441681 -478.37654114 268.19184875 C-477.25664291 268.19911484 -476.13674469 268.20638092 -474.98291016 268.21386719 C-473.79846817 268.21345932 -472.61402618 268.21305145 -471.39369202 268.21263123 C-468.14250718 268.21238176 -464.89144743 268.22050613 -461.64028215 268.23037243 C-458.21657548 268.23709411 -454.79292772 268.22785472 -451.36923218 268.21881104 C-439.71550985 268.1904296 -428.06193263 268.17762275 -416.40820312 268.20751953 C-409.97162338 268.223868 -403.53542584 268.21827009 -397.09888494 268.18972325 C-393.70405772 268.17561163 -390.31068397 268.17550751 -386.91579056 268.19594574 C-371.01036917 268.28758328 -356.87916774 267.21729963 -341.73328781 262.15976715 C-338.63648755 261.12939602 -335.50763989 260.22748448 -332.375 259.3125 C-305.93586125 250.95256667 -280.01076096 239.74058276 -255.64941406 226.54980469 C-252.59134289 224.9198828 -249.48707758 223.39942626 -246.375 221.875 C-240.41120357 218.93173651 -234.63360246 215.71705406 -228.88989258 212.36889648 C-225.7958389 210.58671216 -223.04890589 209.19077699 -219.5625 208.4375 C-219.5625 207.7775 -219.5625 207.1175 -219.5625 206.4375 C-217.87565882 205.36764758 -216.13396262 204.3841086 -214.375 203.4375 C-199.30558794 194.86931143 -185.57033775 182.80306113 -173.51953125 170.39453125 C-171.68943408 168.56443408 -169.80414675 166.90046529 -167.8125 165.25 C-165.57605713 163.38800743 -163.96053835 161.71514602 -162.0625 159.4375 C-159.64168825 156.5325259 -157.14468698 154.33310302 -154.25 151.9375 C-152.31694683 150.29417758 -152.31694683 150.29417758 -150.0625 147.4375 C-147.64168825 144.5325259 -145.14468698 142.33310302 -142.25 139.9375 C-140.31694683 138.29417758 -140.31694683 138.29417758 -138.0625 135.4375 C-135.64168825 132.5325259 -133.14468698 130.33310302 -130.25 127.9375 C-128.31694683 126.29417758 -128.31694683 126.29417758 -126.0625 123.4375 C-123.64168825 120.5325259 -121.14468698 118.33310302 -118.25 115.9375 C-116.31694683 114.29417758 -116.31694683 114.29417758 -114.0625 111.4375 C-111.64168825 108.5325259 -109.14468698 106.33310302 -106.25 103.9375 C-104.31694683 102.29417758 -104.31694683 102.29417758 -102.0625 99.4375 C-99.64168825 96.5325259 -97.14468698 94.33310302 -94.25 91.9375 C-92.31694683 90.29417758 -92.31694683 90.29417758 -90.0625 87.4375 C-87.64168825 84.5325259 -85.14468698 82.33310302 -82.25 79.9375 C-80.31694683 78.29417758 -80.31694683 78.29417758 -78.0625 75.4375 C-75.64168825 72.5325259 -73.14468698 70.33310302 -70.25 67.9375 C-68.31694683 66.29417758 -68.31694683 66.29417758 -66.0625 63.4375 C-64.12862385 61.11684862 -62.47884249 59.44649272 -60.1875 57.5625 C-56.90114968 54.83567915 -54.20915081 51.83073204 -51.453125 48.578125 C-48.72266087 45.48660776 -45.75529306 42.65588904 -42.7734375 39.80859375 C-40.03343601 36.87011159 -37.84602107 33.74259628 -35.5625 30.4375 C-36.40059204 30.52837891 -36.40059204 30.52837891 -37.25561523 30.62109375 C-39.83657726 30.89812962 -42.41825657 31.16784719 -45 31.4375 C-45.87849609 31.53289062 -46.75699219 31.62828125 -47.66210938 31.7265625 C-62.56952794 33.26681239 -62.56952794 33.26681239 -66.9375 31.44921875 C-67.741875 30.79373047 -67.741875 30.79373047 -68.5625 30.125 C-69.119375 29.69574219 -69.67625 29.26648438 -70.25 28.82421875 C-73.18287295 25.72549881 -72.83848908 21.72332838 -72.7734375 17.72265625 C-72.46092208 14.33707254 -71.53361504 12.19706106 -69.5625 9.4375 C-65.13734453 6.78240672 -61.28784896 5.88150445 -56.1875 5.3125 C-55.48834473 5.23249756 -54.78918945 5.15249512 -54.06884766 5.07006836 C-49.36424698 4.55594757 -44.66410926 4.2480011 -39.9375 4 C-33.42299242 3.65477585 -27.0754282 2.83382494 -20.625 1.875 C-13.74753474 0.88442593 -6.95274544 0.10500784 0 0 Z " fill="#FEFEFE" transform="translate(743.5625,343.5625)"/>
<path d="M0 0 C1.31892998 -0.00287018 1.31892998 -0.00287018 2.664505 -0.00579834 C4.50558766 -0.00714796 6.34668024 -0.00353792 8.18774414 0.00488281 C10.99191718 0.01563895 13.79545536 0.00492586 16.59960938 -0.0078125 C18.39974098 -0.00649144 20.1998722 -0.00393016 22 0 C22.82932541 -0.00404846 23.65865082 -0.00809692 24.5131073 -0.01226807 C30.79692739 0.03800217 36.11406657 0.26663608 40.96389008 4.70011044 C44.34389841 8.97695252 43.98963702 13.42182805 43.92224121 18.67225647 C43.92863003 19.71924459 43.93501885 20.76623272 43.94160128 21.84494776 C43.95686035 25.3528314 43.93638263 28.85958733 43.91601562 32.36743164 C43.9195165 34.88234329 43.92517468 37.39725272 43.93283081 39.91215515 C43.94561126 46.03330404 43.93513397 52.15403448 43.91371757 58.27514751 C43.88969214 65.40389361 43.89142285 72.53256388 43.89402348 79.66134148 C43.89771261 92.38049774 43.87689645 105.09949767 43.84277344 117.81860352 C43.80967575 130.16011505 43.79551644 142.50146255 43.80175781 154.84301758 C43.80852191 168.284294 43.80606158 181.72550173 43.78639841 195.16676801 C43.78535893 195.87752301 43.78431944 196.58827802 43.78324845 197.32057105 C43.78115757 198.74806747 43.77904659 200.17556387 43.77691528 201.60306023 C43.77002034 206.57211596 43.76935025 211.54115053 43.77079773 216.51021004 C43.77238777 223.1972545 43.75749255 229.88407459 43.7315712 236.57107735 C43.724397 239.02812243 43.72233177 241.48518841 43.72568893 243.94224167 C43.72939163 247.29036818 43.71469763 250.63791719 43.69519043 253.98597717 C43.70318232 255.45211593 43.70318232 255.45211593 43.71133566 256.94787365 C43.66187914 261.85169741 43.57142909 265.33245848 40.30078125 269.265625 C34.479152 273.68294706 29.51782726 273.85528064 22.36328125 273.796875 C20.80492554 273.80261536 20.80492554 273.80261536 19.21508789 273.80847168 C17.02652004 273.81118417 14.83791941 273.80386965 12.64941406 273.78710938 C9.31110945 273.76569126 5.9749569 273.7869347 2.63671875 273.8125 C0.50390153 273.80985661 -1.62891436 273.80473139 -3.76171875 273.796875 C-4.75357178 273.80497192 -5.7454248 273.81306885 -6.76733398 273.82141113 C-12.93032192 273.73855677 -16.73899528 273.02933163 -21.69921875 269.265625 C-25.58151636 264.59690989 -25.12511091 259.76163613 -25.09362793 253.98597717 C-25.10276459 252.41783497 -25.10276459 252.41783497 -25.11208582 250.81801313 C-25.12875505 247.30963644 -25.1239343 243.80162113 -25.11914062 240.29321289 C-25.12647862 237.78007122 -25.13506405 235.26693294 -25.14480591 232.75379944 C-25.16474606 226.6329627 -25.17040102 220.51225928 -25.16861802 214.39139444 C-25.16731028 209.41634332 -25.17111514 204.44132174 -25.17854309 199.46627617 C-25.18064229 198.03310679 -25.18273989 196.5999374 -25.18483591 195.16676801 C-25.18587944 194.45343777 -25.18692297 193.74010753 -25.18799812 193.00516122 C-25.20689864 179.51554627 -25.20585077 166.0259857 -25.19902879 152.536363 C-25.19345251 140.19604991 -25.2142826 127.85594437 -25.24738926 115.51567978 C-25.28112241 102.84351556 -25.29629513 90.17145078 -25.29167223 77.49924082 C-25.28942727 70.38519556 -25.2946745 63.27134218 -25.31956482 56.15733528 C-25.34276809 49.46859093 -25.33999997 42.78034984 -25.3196373 36.09157372 C-25.31621755 33.63493643 -25.32135755 31.17827031 -25.33562088 28.72167206 C-25.35373298 25.37135784 -25.34112237 22.02252498 -25.32067871 18.67225647 C-25.33945548 17.2094638 -25.33945548 17.2094638 -25.35861158 15.71711975 C-25.30045951 11.2807832 -25.14060975 8.21857431 -22.30630207 4.67859173 C-19.67805442 2.24603651 -18.46950637 1.41196341 -14.99291992 0.90722656 C-14.12114105 0.77868286 -13.24936218 0.65013916 -12.35116577 0.5177002 C-8.22278718 0.12528593 -4.14592494 -0.02038817 0 0 Z " fill="#FEFEFE" transform="translate(720.69921875,462.734375)"/>
<path d="M0 0 C0.99592667 -0.00428513 1.99185333 -0.00857025 3.01795959 -0.01298523 C5.11832928 -0.01871268 7.2187188 -0.01924051 9.3190918 -0.01489258 C12.52101681 -0.0117327 15.72201718 -0.03521181 18.92382812 -0.06054688 C20.97005092 -0.06282013 23.01627619 -0.06352324 25.0625 -0.0625 C26.48936378 -0.07631462 26.48936378 -0.07631462 27.9450531 -0.09040833 C33.55701938 -0.05161427 37.79234794 0.26313854 42.59765625 3.30078125 C45.26551893 8.31172553 46.03295966 12.48442484 45.97860718 18.16346741 C45.98328715 18.92475573 45.98796712 19.68604404 45.99278891 20.4704017 C46.00469469 23.00526932 45.99529928 25.53959187 45.98583984 28.07446289 C45.98990748 29.8982525 45.99525044 31.72203965 46.00177002 33.54582214 C46.01542558 38.48786331 46.01015247 43.42971622 46.00063276 48.37176061 C45.99302823 53.54727889 46.00008388 58.72278124 46.00479126 63.89830017 C46.010246 72.58790984 46.00306405 81.27744297 45.98876953 89.96704102 C45.97243844 100.01059635 45.97773601 110.05396902 45.99424875 120.09751993 C46.00786548 128.72530017 46.00978251 137.35302545 46.00193274 145.98081297 C45.99725793 151.1318778 45.99662625 156.28285679 46.00654221 161.43391609 C46.01521246 166.27587112 46.00918881 171.11759072 45.99185944 175.95952034 C45.98789514 177.73565276 45.98902766 179.51180502 45.99564743 181.28792953 C46.00385522 183.71391278 45.99355108 186.13914334 45.97860718 188.56507874 C45.98529934 189.26654323 45.99199151 189.96800773 45.99888647 190.69072872 C45.9441872 195.27420079 44.96924812 198.39024032 42.59765625 202.30078125 C37.32278396 206.84071357 30.6995224 206.91524458 24.0703125 206.90234375 C23.08195908 206.910914 22.09360565 206.91948425 21.07530212 206.92831421 C18.9953008 206.93974578 16.91521957 206.94084202 14.83520508 206.93212891 C11.67193921 206.92580481 8.5124141 206.97279329 5.34960938 207.0234375 C3.31901509 207.02798418 1.28841084 207.02939015 -0.7421875 207.02734375 C-1.67683334 207.04576324 -2.61147919 207.06418274 -3.57444763 207.0831604 C-9.69247737 206.99795098 -13.61613637 205.53992047 -18.71070862 202.17367554 C-22.33520818 198.16080988 -21.52785248 191.93000154 -21.52932739 186.79959106 C-21.53088738 186.06506962 -21.53244737 185.33054817 -21.53405464 184.5737685 C-21.53802892 182.12353983 -21.53488884 179.67337361 -21.53173828 177.22314453 C-21.53309393 175.46186283 -21.53487478 173.70058142 -21.53704834 171.93930054 C-21.54160387 167.16240445 -21.53984065 162.38552998 -21.53666925 157.60863352 C-21.53413516 152.60488229 -21.5364862 147.60113289 -21.53805542 142.59738159 C-21.53987438 134.19268461 -21.53747831 125.78799642 -21.53271484 117.38330078 C-21.52727629 107.6755713 -21.52903303 97.96786283 -21.53454125 88.26013386 C-21.53908438 79.91855379 -21.53971694 71.57698004 -21.53710258 63.23539913 C-21.53554596 58.256428 -21.53532912 53.27746674 -21.53863907 48.29849625 C-21.54153507 43.61503495 -21.53951033 38.93160064 -21.53374481 34.24814224 C-21.53242633 32.53251185 -21.5327958 30.81687917 -21.53500748 29.10124969 C-21.53775502 26.75278239 -21.534294 24.40440063 -21.52932739 22.05593872 C-21.52895037 20.74372408 -21.52857334 19.43150944 -21.52818489 18.07953072 C-21.17199884 7.38399953 -21.17199884 7.38399953 -18.71484375 3.92578125 C-12.89916621 -0.16091107 -6.83073937 -0.00653079 0 0 Z " fill="#FEFEFE" transform="translate(628.40234375,529.69921875)"/>
<path d="M0 0 C1.01953766 -0.00428513 2.03907532 -0.00857025 3.08950806 -0.01298523 C5.24293273 -0.01871949 7.39637676 -0.01923546 9.54980469 -0.01489258 C12.8330211 -0.01173657 16.11533266 -0.03518996 19.3984375 -0.06054688 C21.49479053 -0.06282045 23.59114598 -0.0635231 25.6875 -0.0625 C26.66375336 -0.07170975 27.64000671 -0.08091949 28.64584351 -0.09040833 C34.34930709 -0.05197344 38.47176913 0.4770442 43.4765625 3.30078125 C47.74262711 9.69987816 46.62163626 18.63160558 46.60595703 26.09375 C46.60858551 27.65411484 46.60858551 27.65411484 46.61126709 29.2460022 C46.61564258 32.66011255 46.61276281 36.07417044 46.609375 39.48828125 C46.61004927 41.87524424 46.61102033 44.26220716 46.61227417 46.64916992 C46.61374532 51.64209652 46.61161533 56.63500518 46.60693359 61.62792969 C46.60123668 68.01315235 46.6045188 74.39833296 46.61050606 80.78355408 C46.6141274 85.70959792 46.61296585 90.63563188 46.61037827 95.56167603 C46.60971335 97.91549688 46.61052213 100.26931864 46.61285782 102.62313843 C46.61541019 105.91805383 46.6115074 109.21290207 46.60595703 112.5078125 C46.60798126 113.47119537 46.61000549 114.43457825 46.61209106 115.42715454 C46.56398418 130.91946182 46.56398418 130.91946182 43.1640625 135.23828125 C39.31084566 138.19540115 36.68766155 139.5475863 31.80322266 139.57543945 C30.42126205 139.58973747 30.42126205 139.58973747 29.01138306 139.60432434 C27.52848282 139.60295723 27.52848282 139.60295723 26.015625 139.6015625 C24.99230072 139.60584763 23.96897644 139.61013275 22.91464233 139.61454773 C20.75104512 139.62028756 18.5874286 139.62079385 16.42382812 139.61645508 C13.12075688 139.61329959 9.81858524 139.63674366 6.515625 139.66210938 C4.41145946 139.6643829 2.30729152 139.66508562 0.203125 139.6640625 C-1.27370255 139.67787712 -1.27370255 139.67787712 -2.78036499 139.69197083 C-9.39806089 139.64753385 -13.9172676 138.83651412 -18.8359375 134.05078125 C-22.54820764 128.00115583 -21.6717822 120.20492267 -21.66870117 113.32006836 C-21.67205978 112.23628403 -21.6754184 111.15249969 -21.67887878 110.03587341 C-21.68834934 106.46661217 -21.69032967 102.89739801 -21.69140625 99.328125 C-21.69462056 96.84143556 -21.69798477 94.3547463 -21.70149231 91.86805725 C-21.70747312 86.66227785 -21.70933319 81.45651502 -21.70874023 76.25073242 C-21.7086587 70.90727109 -21.71526979 65.56390052 -21.72924805 60.22045898 C-21.74590461 53.76091129 -21.75279641 47.30142844 -21.75213051 40.84185982 C-21.75331054 38.38228552 -21.7577336 35.92271055 -21.76546288 33.46314812 C-21.77525635 30.026056 -21.77238755 26.58919542 -21.76635742 23.15209961 C-21.77197693 22.13738586 -21.77759644 21.12267212 -21.78338623 20.07720947 C-21.75662015 14.07553373 -21.63102189 8.9170929 -17.7109375 4.05078125 C-12.24408933 -0.32269729 -6.70744515 -0.00623605 0 0 Z " fill="#FEFEFE" transform="translate(538.5234375,596.69921875)"/>
<path d="M0 0 C0.98459702 -0.00637985 1.96919403 -0.0127597 2.98362732 -0.01933289 C4.04098587 -0.02044571 5.09834442 -0.02155853 6.18774414 -0.02270508 C7.28002823 -0.02603348 8.37231232 -0.02936188 9.49769592 -0.03279114 C11.8067279 -0.03785157 14.11576717 -0.04019974 16.42480469 -0.04003906 C19.95593306 -0.04222582 23.48674914 -0.06039188 27.01782227 -0.0793457 C29.26196182 -0.08227974 31.50610286 -0.08426447 33.75024414 -0.08520508 C34.80557846 -0.09239059 35.86091278 -0.09957611 36.94822693 -0.10697937 C37.9359761 -0.10390274 38.92372528 -0.10082611 39.94140625 -0.09765625 C40.806483 -0.09908127 41.67155975 -0.10050629 42.56285095 -0.10197449 C45.4112367 0.18284475 47.48945425 0.8382641 50.03540039 2.14526367 C53.25286145 7.50769876 53.52338898 11.09411007 52.03540039 17.14526367 C50.59790039 19.58276367 50.59790039 19.58276367 48.03540039 21.14526367 C44.70701204 21.75660031 41.41437671 22.01629511 38.03540039 22.14526367 C38.19805893 22.88455109 38.36071747 23.6238385 38.52830505 24.38552856 C39.244775 29.69762079 39.16570455 34.94683576 39.14892578 40.30102539 C39.14907181 41.52109787 39.14921783 42.74117035 39.14936829 43.99821472 C39.14879244 47.33042229 39.14378919 50.66256734 39.13679433 53.99476385 C39.13052825 57.48211322 39.12995442 60.96946349 39.12876892 64.45681763 C39.12566519 71.0546205 39.11746474 77.65240674 39.10741943 84.2502023 C39.09622852 91.76410185 39.09074034 99.27800221 39.085724 106.79190803 C39.07528131 122.2430362 39.05770045 137.69414779 39.03540039 153.14526367 C39.96561005 153.33164398 39.96561005 153.33164398 40.91461182 153.52178955 C42.13310822 153.77675201 42.13310822 153.77675201 43.3762207 154.03686523 C44.18198547 154.20236877 44.98775024 154.36787231 45.81793213 154.53839111 C48.91005731 155.38463814 50.30634662 156.44942715 52.03540039 159.14526367 C52.42602539 162.16088867 52.42602539 162.16088867 52.28540039 165.39526367 C52.24930664 166.47291992 52.21321289 167.55057617 52.17602539 168.66088867 C52.12961914 169.48073242 52.08321289 170.30057617 52.03540039 171.14526367 C50.05540039 172.13526367 50.05540039 172.13526367 48.03540039 173.14526367 C48.03540039 173.80526367 48.03540039 174.46526367 48.03540039 175.14526367 C45.61422778 176.35584998 44.0352314 176.29139138 41.32958984 176.32226562 C39.8621508 176.34151848 39.8621508 176.34151848 38.36506653 176.36116028 C36.77295601 176.37224068 36.77295601 176.37224068 35.14868164 176.38354492 C34.058311 176.39161667 32.96794037 176.39968842 31.8445282 176.40800476 C29.53194778 176.42185502 27.21934683 176.43257294 24.90673828 176.44042969 C21.37956599 176.45760944 17.85333886 176.50148448 14.32641602 176.5456543 C12.07967812 176.55578399 9.83293225 176.56429923 7.58618164 176.57104492 C6.53489578 176.58855301 5.48360992 176.6060611 4.40046692 176.62409973 C-1.93367424 176.60545792 -5.82262263 175.94374172 -10.96459961 172.14526367 C-12.95815309 168.15815672 -12.61266971 163.46988532 -11.96459961 159.14526367 C-10.26058994 156.28496172 -9.05995611 155.77736074 -5.96459961 154.14526367 C-3.65459961 154.14526367 -1.34459961 154.14526367 1.03540039 154.14526367 C0.70540039 110.58526367 0.37540039 67.02526367 0.03540039 22.14526367 C-2.27459961 21.81526367 -4.58459961 21.48526367 -6.96459961 21.14526367 C-9.90209961 19.27026367 -9.90209961 19.27026367 -11.96459961 16.14526367 C-12.68749104 11.49810445 -13.03886725 7.0547089 -10.68334961 2.86791992 C-7.65427284 -0.16804111 -4.12182434 0.01817876 0 0 Z " fill="#FEFEFE" transform="translate(287.964599609375,418.854736328125)"/>
<path d="M0 0 C1.50692665 -0.01441132 1.50692665 -0.01441132 3.04429626 -0.02911377 C4.12352859 -0.03336365 5.20276093 -0.03761353 6.31469727 -0.04199219 C7.98641747 -0.0505423 7.98641747 -0.0505423 9.69190979 -0.05926514 C12.04801486 -0.06870642 14.40413308 -0.07524565 16.76025391 -0.07910156 C20.36392168 -0.08882085 23.96702235 -0.11985872 27.57055664 -0.15136719 C29.8602668 -0.15789614 32.14998103 -0.16314703 34.43969727 -0.16699219 C36.05550941 -0.18551239 36.05550941 -0.18551239 37.70396423 -0.20440674 C44.32594018 -0.18468676 48.12594527 0.34347456 52.94360352 5.16113281 C53.74848941 10.42254482 53.84889511 14.78947889 50.88110352 19.28613281 C47.94360352 21.16113281 47.94360352 21.16113281 40.94360352 22.16113281 C40.61360352 58.79113281 40.28360352 95.42113281 39.94360352 133.16113281 C38.95360352 133.49113281 37.96360352 133.82113281 36.94360352 134.16113281 C36.94360352 134.82113281 36.94360352 135.48113281 36.94360352 136.16113281 C35.51065853 137.00227452 34.07205946 137.83378968 32.63110352 138.66113281 C31.8305957 139.12519531 31.03008789 139.58925781 30.20532227 140.06738281 C27.94360352 141.16113281 27.94360352 141.16113281 24.94360352 141.16113281 C24.94360352 141.82113281 24.94360352 142.48113281 24.94360352 143.16113281 C23.3715918 143.99257813 23.3715918 143.99257813 21.76782227 144.84082031 C20.388872 145.57250821 19.00996818 146.30428362 17.63110352 147.03613281 C16.59566406 147.58333984 16.59566406 147.58333984 15.53930664 148.14160156 C14.8722168 148.49609375 14.20512695 148.85058594 13.51782227 149.21582031 C12.90511475 149.54050293 12.29240723 149.86518555 11.66113281 150.19970703 C10.04101704 151.1066034 8.48844917 152.13123571 6.94360352 153.16113281 C4.96360352 153.16113281 2.98360352 153.16113281 0.94360352 153.16113281 C0.94360352 109.93113281 0.94360352 66.70113281 0.94360352 22.16113281 C-2.02639648 21.83113281 -4.99639648 21.50113281 -8.05639648 21.16113281 C-10.50883109 19.26049599 -11.68567076 17.90258426 -13.05639648 15.16113281 C-13.45608452 10.36487634 -13.51062286 8.05336319 -11.30639648 3.72363281 C-7.93925555 -0.11116659 -4.92667059 0.03813783 0 0 Z " fill="#FEFEFE" transform="translate(399.056396484375,418.8388671875)"/>
<path d="M0 0 C0.92933853 -0.00570007 1.85867706 -0.01140015 2.81617737 -0.01727295 C4.77530795 -0.02668794 6.73445412 -0.03324295 8.69360352 -0.03710938 C11.67817883 -0.04683191 14.66206986 -0.07789539 17.64648438 -0.109375 C19.55598552 -0.11590448 21.46549156 -0.12115516 23.375 -0.125 C24.26062119 -0.1373468 25.14624237 -0.1496936 26.05870056 -0.16241455 C32.97978655 -0.13771666 37.43308025 1.32257433 43.25390625 5.203125 C44.41449942 8.68490452 44.38805681 11.41512439 44.39916992 15.08959961 C44.40252853 15.7858696 44.40588715 16.48213959 44.40934753 17.19950867 C44.41884765 19.5015135 44.42080012 21.80344553 44.421875 24.10546875 C44.42508804 25.70585663 44.42845214 27.30624421 44.43196106 28.90663147 C44.43794983 32.26157309 44.4398012 35.61648896 44.43920898 38.97143555 C44.43910733 43.27006947 44.45276394 47.56853835 44.46998119 51.86713314 C44.48109981 55.17253884 44.48312824 58.47790461 44.48259926 61.7833271 C44.48377941 63.36815523 44.48820319 64.95298439 44.49593163 66.53779411 C44.50572958 68.75439903 44.50285448 70.97064516 44.49682617 73.18725586 C44.49825119 74.44839706 44.49967621 75.70953827 44.50114441 77.00889587 C44.26393506 80.07355632 44.00926038 81.71787131 42.25390625 84.203125 C36.67091916 88.64536182 30.4256064 88.76761413 23.5859375 88.6640625 C22.58809738 88.66314606 21.59025726 88.66222961 20.56217957 88.6612854 C18.46531378 88.65527369 16.3684556 88.63960145 14.27172852 88.61474609 C11.06559593 88.57811574 7.86061747 88.57372807 4.65429688 88.57421875 C2.61066712 88.56439077 0.56704515 88.55273516 -1.4765625 88.5390625 C-2.90949898 88.53572403 -2.90949898 88.53572403 -4.37138367 88.53231812 C-10.63276476 88.44302737 -14.70674287 88.05708035 -19.49609375 83.703125 C-22.97341295 79.83943699 -22.87847764 77.78647716 -22.90722656 72.64550781 C-22.91219147 71.97210358 -22.91715637 71.29869934 -22.92227173 70.60488892 C-22.9369027 68.37199894 -22.94369801 66.13918008 -22.94921875 63.90625 C-22.95497087 62.35406492 -22.96072859 60.80187986 -22.9664917 59.24969482 C-22.97700533 55.99132964 -22.98284515 52.73298914 -22.98632812 49.47460938 C-22.99180379 45.30722558 -23.01581013 41.14017001 -23.04430008 36.97288895 C-23.06296394 33.76433372 -23.06813412 30.55585681 -23.069664 27.34725189 C-23.07268425 25.81151288 -23.08069158 24.27577504 -23.09384918 22.74008942 C-23.11098342 20.58591619 -23.10901162 18.43253481 -23.10253906 16.27832031 C-23.10618469 15.05413391 -23.10983032 13.82994751 -23.11358643 12.56866455 C-22.70489328 8.82580645 -21.68073458 6.41312809 -19.74609375 3.203125 C-14.30779274 -0.73495504 -6.42395456 0.03075668 0 0 Z " fill="#FEFEFE" transform="translate(451.74609375,647.796875)"/>
<path d="M0 0 C1.0447348 -0.00960754 2.0894696 -0.01921509 3.16586304 -0.02911377 C4.8580748 -0.03548859 4.8580748 -0.03548859 6.58447266 -0.04199219 C8.32490341 -0.0505423 8.32490341 -0.0505423 10.10049438 -0.05926514 C12.55673307 -0.06871642 15.01298444 -0.07524962 17.46923828 -0.07910156 C21.22662456 -0.08881057 24.98346471 -0.11983499 28.74072266 -0.15136719 C31.12613607 -0.15789691 33.5115534 -0.1631475 35.89697266 -0.16699219 C37.58311172 -0.18551239 37.58311172 -0.18551239 39.30331421 -0.20440674 C40.35435333 -0.20140564 41.40539246 -0.19840454 42.48828125 -0.1953125 C43.8703627 -0.20078094 43.8703627 -0.20078094 45.28036499 -0.20635986 C48.42429004 0.23918337 50.31097642 1.31602307 52.87353516 3.16113281 C54.85934984 7.13276217 54.40331576 11.84186272 53.87353516 16.16113281 C51.93603516 19.28613281 51.93603516 19.28613281 48.87353516 21.16113281 C46.60571289 21.56298828 46.60571289 21.56298828 44.18212891 21.77832031 C42.97061157 21.89216064 42.97061157 21.89216064 41.73461914 22.00830078 C41.12046143 22.05873535 40.50630371 22.10916992 39.87353516 22.16113281 C39.9001825 22.76533051 39.92682983 23.3695282 39.95428467 23.99203491 C40.22113992 30.31852411 40.40128123 36.64340204 40.53271484 42.97412109 C40.59282209 45.33155296 40.67453948 47.68854186 40.77880859 50.04443359 C41.67011573 70.71052552 41.67011573 70.71052552 37.21923828 75.99414062 C34.08758259 78.92433602 30.3183861 82.16113281 25.87353516 82.16113281 C25.37853516 83.64613281 25.37853516 83.64613281 24.87353516 85.16113281 C23.88353516 85.16113281 22.89353516 85.16113281 21.87353516 85.16113281 C21.63248047 85.74894531 21.39142578 86.33675781 21.14306641 86.94238281 C19.6299992 89.58675874 18.00372194 90.8547762 15.56103516 92.66113281 C12.97442144 94.5917514 10.46244756 96.5096636 7.99853516 98.59863281 C5.87353516 100.16113281 5.87353516 100.16113281 2.87353516 100.16113281 C2.54353516 74.42113281 2.21353516 48.68113281 1.87353516 22.16113281 C-1.42646484 21.50113281 -4.72646484 20.84113281 -8.12646484 20.16113281 C-11.09470538 17.28019347 -11.31606607 14.64058502 -11.50146484 10.66113281 C-11.36503841 6.76323483 -10.70414696 4.21616347 -8.12646484 1.16113281 C-5.13713852 0.16469071 -3.1233954 0.02318617 0 0 Z " fill="#FEFEFE" transform="translate(510.12646484375,418.8388671875)"/>
</svg>
